<?xml version="1.0" standalone="no"?><!DOCTYPE svg PUBLIC "-//W3C//DTD SVG 1.1//EN" "http://www.w3.org/Graphics/SVG/1.1/DTD/svg11.dtd"><svg t="1635907280999" class="icon" viewBox="0 0 1024 1024" version="1.1" xmlns="http://www.w3.org/2000/svg" p-id="2941" xmlns:xlink="http://www.w3.org/1999/xlink" width="200" height="200"><defs><style type="text/css"></style></defs><path d="M278.8864 148.1728c14.336-8.192 32.6144-9.3696 47.8208-2.6624 11.3664 4.6592 19.968 13.824 29.184 21.6064 38.144 32.9216 75.9808 66.304 114.2784 99.0208h80.4352c38.2976-32.768 76.0832-66.048 114.2272-98.9696 9.2672-7.7824 17.8688-16.896 29.2864-21.6576 14.7456-6.5024 32.4608-5.632 46.592 2.048 16.5888 8.5504 28.1088 26.2656 28.8256 44.9536 1.024 13.568-3.84 27.2896-12.3392 37.7856-7.5264 8.3456-16.5376 15.2064-24.8832 22.6816-5.3248 4.4032-10.1376 9.5232-16.0256 13.2096 23.6544 0 47.2576-0.256 70.912 0.1536 31.1296 0.8192 61.44 14.592 82.8928 37.1712 22.6304 22.2208 35.5328 53.5552 35.4816 85.1968 0.1024 108.4416 0 216.9344 0.0512 325.376-0.1024 16.384 0.8192 33.024-2.816 49.152-6.656 32.9728-28.8256 61.5936-56.9856 79.36a121.344 121.344 0 0 1-64.7168 17.7664H263.2704c-16.9984-0.1024-34.2528 0.8704-50.9952-2.8672-32.1024-6.4512-60.0064-27.648-77.824-54.6304a121.088 121.088 0 0 1-19.2512-66.9696v-321.536c0.1024-16.5376-0.9216-33.1776 2.4576-49.408 10.24-52.9408 58.9312-96.1024 112.9984-98.4576 24.6272-0.768 49.3056-0.2048 73.9328-0.3072-11.6224-8.3968-21.8112-18.5344-32.768-27.7504a55.04 55.04 0 0 1-20.5312-45.9264c0.7168-18.2272 11.6736-35.584 27.648-44.3392m-13.056 221.7984c-20.992 3.7376-38.912 20.3264-44.7488 40.7552a76.4928 76.4928 0 0 0-2.3552 21.7088c0.1024 89.0368-0.0512 178.0736 0.0512 267.1616-0.4096 24.2176 16.3328 47.1552 39.1168 54.8864 8.1408 2.9696 16.896 3.0208 25.3952 3.072 153.1904-0.1024 306.432 0.0512 459.6224-0.0512 22.4768 0.8704 44.0832-13.1072 53.5552-33.28 5.7856-11.5712 5.6832-24.7296 5.4784-37.376v-248.832c0-9.1136 0.3072-18.4832-2.304-27.2896a58.7776 58.7776 0 0 0-36.864-38.656c-9.7792-3.584-20.4288-3.0208-30.6688-3.072H292.5056c-8.8576 0-17.8176-0.3072-26.624 0.9728z" fill="#1296DB" p-id="2942"></path><path d="M358.7072 455.5264c14.6432-1.4848 29.8496 3.2768 41.0112 12.8 12.4416 10.24 19.5584 26.112 19.7632 42.1376 0.3584 19.4048 0.1024 38.8608 0.1024 58.2656 0 12.8-3.3792 25.8048-11.3152 35.9424a54.9888 54.9888 0 0 1-48.4864 21.76 54.9376 54.9376 0 0 1-44.032-28.2624c-6.8096-11.6736-7.3728-25.4976-7.168-38.6048 0.4096-18.8416-1.024-37.7856 0.8704-56.576a55.296 55.296 0 0 1 49.2544-47.4624z m292.4544 0a55.2448 55.2448 0 0 1 60.7232 53.0432c0.8192 18.2272 0.1024 36.4544 0.4096 54.6816 0.1024 12.8-1.4336 26.112-8.4992 37.12-10.24 17.0496-30.3104 27.5456-50.176 26.112a55.04 55.04 0 0 1-43.3664-24.9856c-7.936-11.776-9.472-26.2656-9.1136-40.0896 0.3584-18.7392-0.6656-37.4784 0.6144-56.1664 1.8432-25.6 23.9104-47.5136 49.408-49.664z" fill="#1296DB" p-id="2943"></path></svg>