<?xml version="1.0" standalone="no"?><!DOCTYPE svg PUBLIC "-//W3C//DTD SVG 1.1//EN" "http://www.w3.org/Graphics/SVG/1.1/DTD/svg11.dtd"><svg t="1635908054924" class="icon" viewBox="0 0 1024 1024" version="1.1" xmlns="http://www.w3.org/2000/svg" p-id="6800" xmlns:xlink="http://www.w3.org/1999/xlink" width="200" height="200"><defs><style type="text/css"></style></defs><path d="M512 512m-512 0a512 512 0 1 0 1024 0 512 512 0 1 0-1024 0Z" fill="#16DCDD" fill-opacity=".1" p-id="6801"></path><path d="M512 170.666667c188.522667 0 341.333333 152.810667 341.333333 341.333333s-152.810667 341.333333-341.333333 341.333333S170.666667 700.522667 170.666667 512 323.477333 170.666667 512 170.666667z m0 281.6a59.733333 59.733333 0 0 0-54.272 84.693333c-31.04 35.2-64.213333 94.357333-46.421333 176.426667 1.706667 8.533333 8.533333 13.653333 17.066666 13.653333 1.706667 0 1.706667 0 3.413334 1.706667 10.24-1.706667 15.36-11.946667 13.653333-20.48-14.677333-66.538667 11.029333-115.114667 36.266667-144.789334A59.733333 59.733333 0 1 0 512 452.266667z m0-100.693334c-88.746667 0-162.133333 71.68-162.133333 162.133334 0 17.066667 1.706667 35.84 8.533333 52.906666 3.413333 8.533333 13.653333 13.653333 22.186667 10.24 8.533333-3.413333 13.653333-13.653333 10.24-22.186666-5.12-13.653333-6.826667-27.306667-6.826667-42.666667 0-69.973333 56.32-128 128-128 69.973333 0 128 56.32 128 128 0 69.973333-56.32 128-128 128-10.24 0-17.066667 6.826667-17.066667 17.066667 0 10.24 6.826667 17.066667 17.066667 17.066666 90.453333 0 162.133333-71.68 162.133333-160.426666s-73.386667-162.133333-162.133333-162.133334z" fill="#16DCDD" p-id="6802"></path></svg>