<?xml version="1.0" standalone="no"?><!DOCTYPE svg PUBLIC "-//W3C//DTD SVG 1.1//EN" "http://www.w3.org/Graphics/SVG/1.1/DTD/svg11.dtd"><svg t="1635907377031" class="icon" viewBox="0 0 1024 1024" version="1.1" xmlns="http://www.w3.org/2000/svg" p-id="5498" xmlns:xlink="http://www.w3.org/1999/xlink" width="200" height="200"><defs><style type="text/css"></style></defs><path d="M552.448 657.408c0 117.76 95.232 212.992 212.992 212.992s212.992-95.232 212.992-212.992-95.232-212.992-212.992-212.992-212.992 95.232-212.992 212.992z" fill="#FFF8B8" p-id="5499"></path><path d="M512 1024C229.376 1024 0 794.624 0 512S229.376 0 512 0s512 229.376 512 512-229.376 512-512 512z m0-955.904c-245.248 0-443.904 198.656-443.904 443.904s198.656 443.904 443.904 443.904 443.904-198.656 443.904-443.904c-0.512-244.736-199.168-443.392-443.904-443.904z" fill="#FFDA77" p-id="5500"></path><path d="M512 751.104c-11.264 1.024-22.528 1.024-34.304 0-18.432-2.56-31.232-18.944-28.672-37.376v-1.536c2.56-17.92 18.944-31.232 36.864-29.184 8.704 0.512 17.408 0.512 26.112 0 94.208 0 170.496-76.288 170.496-170.496S606.208 342.016 512 342.016 341.504 417.792 341.504 512c-1.024 11.776-1.024 23.04 0 34.816 3.072 18.432-8.704 36.352-27.136 39.424-17.408 4.096-35.328-7.168-38.912-24.576 0-1.024-0.512-1.536-0.512-2.56-25.6-129.536 58.368-254.976 187.904-280.576s254.976 58.368 280.576 187.904c25.6 129.536-58.368 254.976-187.904 280.576-14.336 2.048-29.184 3.584-43.52 4.096z" fill="#FFDA77" p-id="5501"></path><path d="M466.432 541.184c-32.256 30.72-59.904 66.048-82.432 104.448-22.528 39.424-36.864 82.944-42.496 128.512" fill="#FFA45B" p-id="5502"></path><path d="M341.504 808.448h-4.096c-18.944-2.048-32.256-18.944-30.208-37.888v-0.512c5.632-49.664 22.016-97.792 47.104-141.312 24.064-40.96 53.76-78.848 88.064-112.128 13.312-13.312 34.816-13.312 48.128 0 13.312 12.8 13.312 34.304 0.512 47.104l-0.512 0.512c-30.208 29.184-56.32 62.464-77.824 98.816-20.48 35.328-33.792 74.24-38.4 114.688-1.536 17.408-15.872 30.208-32.768 30.72z" fill="#FFDA77" p-id="5503"></path><path d="M442.88 510.464c0 37.888 30.208 68.608 68.096 68.608s68.608-30.208 68.608-68.096v-0.512c0-37.888-30.208-68.608-68.096-68.608s-68.608 30.208-68.608 68.608c0-0.512 0 0 0 0z" fill="#FFF8B8" p-id="5504"></path></svg>